<svg xmlns="http://www.w3.org/2000/svg" id="SvgjsSvg47417" width="4096" height="3443.813758471056" version="1.1" xmlns:xlink="http://www.w3.org/1999/xlink" xmlns:svgjs="http://svgjs.com/svgjs"><defs id="SvgjsDefs47418"></defs><g id="SvgjsG47419" transform="translate(328, 328) scale(34.4)" opacity="1"><defs id="SvgjsDefs15218"></defs><g id="SvgjsG15219" transform="scale(0.28445453713574087)" opacity="1"><g id="SvgjsG15220" class="DMrLbKp1Y" transform="translate(33.325013130271, 0) scale(1)" light-content="false" fill="#ffffff"><path d="M0 0 h 284.9 v 2 h -284.9 Z M0 0 h 2 v 94.017 h -2 ZM0 190.883 h 2 v 94.01699999999998 h -2 Z M284.9 284.9 h -284.9 v -2 h 284.9 Z M284.9 284.9 h -2 v -94.01699999999998 h 2 ZM284.9 94.017 h -2 v -94.017 h 2 Z" fill-rule="nonzero"></path></g><g id="SvgjsG15221" class="text" transform="translate(272.2903773681573, 158.11760504423697) scale(1)" light-content="false" fill="#ffffff"><path d="M-77.22 0L-56.28 0C-55.97 0 -55.74 -0.08 -55.57 -0.23C-55.41 -0.39 -55.33 -0.56 -55.33 -0.77C-55.33 -0.95 -55.41 -1.12 -55.57 -1.29C-55.74 -1.45 -55.97 -1.53 -56.28 -1.53L-76.2 -1.53L-76.2 -24.32C-76.2 -24.69 -76.25 -25.04 -76.36 -25.35C-76.47 -25.67 -76.71 -25.83 -77.08 -25.83C-77.53 -25.83 -77.82 -25.68 -77.96 -25.38C-78.1 -25.07 -78.17 -24.72 -78.17 -24.32L-78.17 -0.86C-78.17 -0.66 -78.17 -0.5 -78.16 -0.38C-78.15 -0.27 -78.11 -0.18 -78.05 -0.13C-77.99 -0.07 -77.89 -0.04 -77.76 -0.02C-77.63 -0.01 -77.45 0 -77.22 0Z M-19.7 -12.91C-19.7 -15.17 -20.03 -17.14 -20.7 -18.81C-21.38 -20.49 -22.41 -21.89 -23.81 -23C-25.21 -24.11 -26.98 -24.94 -29.12 -25.49C-31.26 -26.04 -33.8 -26.32 -36.74 -26.32C-39.67 -26.32 -42.21 -26.04 -44.35 -25.49C-46.49 -24.94 -48.26 -24.11 -49.65 -23C-51.04 -21.89 -52.07 -20.49 -52.75 -18.81C-53.42 -17.14 -53.75 -15.17 -53.75 -12.91C-53.75 -10.66 -53.42 -8.69 -52.75 -7.01C-52.07 -5.34 -51.04 -3.94 -49.65 -2.83C-48.26 -1.72 -46.49 -0.88 -44.35 -0.34C-42.21 0.21 -39.67 0.49 -36.74 0.49C-33.8 0.49 -31.26 0.21 -29.12 -0.34C-26.98 -0.88 -25.21 -1.72 -23.81 -2.83C-22.41 -3.94 -21.38 -5.34 -20.7 -7.01C-20.03 -8.69 -19.7 -10.66 -19.7 -12.91ZM-51.78 -12.91C-51.78 -15.06 -51.48 -16.89 -50.86 -18.4C-50.24 -19.9 -49.31 -21.13 -48.06 -22.08C-46.82 -23.03 -45.25 -23.72 -43.37 -24.15C-41.48 -24.57 -39.27 -24.79 -36.74 -24.79C-34.2 -24.79 -31.99 -24.57 -30.11 -24.15C-28.22 -23.72 -26.65 -23.03 -25.4 -22.08C-24.15 -21.13 -23.21 -19.9 -22.59 -18.4C-21.98 -16.89 -21.67 -15.06 -21.67 -12.91C-21.67 -10.75 -21.98 -8.92 -22.59 -7.42C-23.21 -5.92 -24.15 -4.7 -25.4 -3.74C-26.65 -2.79 -28.22 -2.11 -30.11 -1.68C-31.99 -1.26 -34.2 -1.04 -36.74 -1.04C-39.27 -1.04 -41.48 -1.26 -43.37 -1.68C-45.25 -2.11 -46.82 -2.79 -48.06 -3.74C-49.31 -4.7 -50.24 -5.92 -50.86 -7.42C-51.48 -8.92 -51.78 -10.75 -51.78 -12.91Z M-13.99 -12.91C-13.99 -10.5 -13.63 -8.45 -12.89 -6.76C-12.16 -5.07 -11.06 -3.68 -9.61 -2.61C-8.16 -1.53 -6.35 -0.75 -4.17 -0.26C-2 0.24 0.52 0.49 3.4 0.49C5.41 0.49 7.35 0.31 9.23 -0.06C11.11 -0.42 13.03 -1 14.99 -1.81C15.25 -1.92 15.44 -2.05 15.55 -2.2C15.65 -2.36 15.71 -2.51 15.71 -2.67C15.71 -2.85 15.63 -3.01 15.49 -3.15C15.34 -3.29 15.15 -3.36 14.92 -3.36C14.77 -3.36 14.63 -3.33 14.5 -3.27C12.72 -2.53 10.89 -1.97 8.98 -1.6C7.08 -1.23 5.22 -1.04 3.4 -1.04C0.65 -1.04 -1.7 -1.27 -3.65 -1.73C-5.6 -2.18 -7.2 -2.89 -8.44 -3.86C-9.68 -4.83 -10.59 -6.06 -11.16 -7.55C-11.74 -9.04 -12.02 -10.83 -12.02 -12.91C-12.02 -15 -11.74 -16.79 -11.16 -18.28C-10.59 -19.77 -9.68 -21 -8.44 -21.97C-7.2 -22.93 -5.6 -23.65 -3.65 -24.1C-1.7 -24.56 0.65 -24.79 3.4 -24.79C5.22 -24.79 7.08 -24.6 8.98 -24.23C10.89 -23.86 12.72 -23.3 14.5 -22.56C14.73 -22.48 14.88 -22.44 14.94 -22.44C15.16 -22.44 15.34 -22.51 15.48 -22.65C15.62 -22.79 15.68 -22.95 15.68 -23.14C15.68 -23.29 15.63 -23.45 15.52 -23.61C15.41 -23.78 15.24 -23.91 14.99 -24.02C13.04 -24.82 11.13 -25.41 9.24 -25.77C7.35 -26.13 5.41 -26.32 3.4 -26.32C0.52 -26.32 -2 -26.07 -4.17 -25.57C-6.35 -25.08 -8.16 -24.29 -9.61 -23.22C-11.06 -22.15 -12.16 -20.76 -12.89 -19.07C-13.63 -17.38 -13.99 -15.33 -13.99 -12.91Z M29.64 -14.4L43.14 -24.21C43.48 -24.45 43.65 -24.75 43.65 -25.09C43.65 -25.3 43.58 -25.48 43.45 -25.62C43.32 -25.76 43.13 -25.83 42.88 -25.83C42.76 -25.83 42.61 -25.8 42.45 -25.75C42.29 -25.69 42.12 -25.6 41.95 -25.48L23.38 -12.15L23.38 -24.34C23.38 -24.75 23.32 -25.09 23.2 -25.39C23.07 -25.68 22.83 -25.83 22.45 -25.83C22.01 -25.83 21.72 -25.69 21.59 -25.4C21.45 -25.11 21.39 -24.75 21.39 -24.3L21.39 -1.58C21.39 -1.16 21.45 -0.79 21.56 -0.48C21.68 -0.16 21.96 0 22.41 0C22.78 0 23.03 -0.16 23.17 -0.48C23.31 -0.79 23.38 -1.17 23.38 -1.62L23.38 -10.29L28.18 -13.45L42.05 -0.35C42.29 -0.12 42.55 0 42.81 0C43.04 0 43.24 -0.09 43.39 -0.26C43.55 -0.43 43.62 -0.63 43.62 -0.86C43.62 -1.2 43.47 -1.51 43.16 -1.79Z M79.26 -7.21C79.26 -8.37 78.99 -9.35 78.46 -10.14C77.93 -10.94 77.2 -11.59 76.29 -12.1C75.38 -12.61 74.31 -13.01 73.09 -13.3C71.87 -13.58 70.58 -13.81 69.21 -13.97C67.84 -14.13 66.43 -14.25 64.98 -14.32C63.52 -14.39 62.11 -14.47 60.75 -14.56C59.38 -14.65 58.08 -14.78 56.86 -14.94C55.64 -15.11 54.57 -15.35 53.66 -15.67C52.75 -16 52.03 -16.43 51.49 -16.96C50.96 -17.49 50.69 -18.18 50.69 -19.04C50.69 -20.15 51.03 -21.07 51.69 -21.81C52.36 -22.54 53.25 -23.13 54.37 -23.57C55.49 -24.01 56.78 -24.32 58.25 -24.51C59.72 -24.69 61.26 -24.79 62.87 -24.79C64.03 -24.79 65.2 -24.73 66.38 -24.63C67.56 -24.53 68.71 -24.39 69.82 -24.21C70.94 -24.02 71.99 -23.79 72.99 -23.52C73.98 -23.25 74.89 -22.95 75.71 -22.61C75.82 -22.54 75.95 -22.51 76.11 -22.51C76.37 -22.51 76.57 -22.61 76.72 -22.79C76.87 -22.98 76.94 -23.18 76.94 -23.39C76.94 -23.52 76.91 -23.64 76.85 -23.75C76.79 -23.87 76.69 -23.96 76.57 -24.02C75.98 -24.3 75.2 -24.57 74.23 -24.84C73.25 -25.11 72.16 -25.36 70.94 -25.58C69.71 -25.81 68.41 -25.99 67.02 -26.12C65.63 -26.25 64.21 -26.32 62.77 -26.32C61.61 -26.32 60.46 -26.27 59.31 -26.18C58.16 -26.08 57.06 -25.93 56.02 -25.71C54.97 -25.5 54.01 -25.21 53.12 -24.84C52.23 -24.48 51.46 -24.02 50.81 -23.48C50.16 -22.93 49.65 -22.27 49.28 -21.52C48.91 -20.76 48.72 -19.89 48.72 -18.9C48.72 -17.81 48.99 -16.92 49.52 -16.21C50.06 -15.5 50.78 -14.92 51.69 -14.47C52.6 -14.02 53.67 -13.68 54.89 -13.45C56.11 -13.22 57.41 -13.04 58.77 -12.91C60.14 -12.79 61.55 -12.7 63.01 -12.65C64.46 -12.59 65.87 -12.52 67.24 -12.42C68.61 -12.32 69.9 -12.17 71.12 -11.98C72.34 -11.78 73.41 -11.5 74.32 -11.12C75.23 -10.74 75.95 -10.24 76.49 -9.61C77.02 -8.98 77.29 -8.18 77.29 -7.21C77.29 -6.05 76.97 -5.08 76.35 -4.29C75.72 -3.5 74.88 -2.87 73.82 -2.39C72.76 -1.91 71.54 -1.57 70.15 -1.37C68.76 -1.17 67.29 -1.07 65.74 -1.07C64.15 -1.07 62.55 -1.15 60.93 -1.32C59.32 -1.49 57.79 -1.7 56.36 -1.96C54.93 -2.21 53.65 -2.49 52.53 -2.78C51.4 -3.08 50.53 -3.35 49.93 -3.59C49.81 -3.64 49.7 -3.66 49.6 -3.66C49.4 -3.66 49.25 -3.6 49.15 -3.47C49.05 -3.33 49 -3.18 49 -2.99C49 -2.82 49.05 -2.65 49.15 -2.49C49.25 -2.33 49.41 -2.19 49.63 -2.09C50.18 -1.82 51.01 -1.55 52.1 -1.25C53.19 -0.96 54.44 -0.68 55.86 -0.43C57.29 -0.17 58.82 0.04 60.46 0.21C62.09 0.38 63.74 0.46 65.39 0.46C66.57 0.46 67.73 0.41 68.88 0.31C70.03 0.21 71.12 0.04 72.14 -0.2C73.16 -0.44 74.11 -0.75 74.98 -1.15C75.85 -1.54 76.61 -2.02 77.24 -2.59C77.88 -3.15 78.37 -3.81 78.73 -4.58C79.08 -5.34 79.26 -6.22 79.26 -7.21Z"></path></g><g id="SvgjsG15222" class="text" transform="translate(93.73514276745438, 158.11760504423697) scale(1)" light-content="false" fill="#ffffff"><path d="M-55.47 0L-34.53 0C-34.23 0 -33.99 -0.08 -33.83 -0.23C-33.66 -0.39 -33.58 -0.56 -33.58 -0.77C-33.58 -0.95 -33.66 -1.12 -33.83 -1.29C-33.99 -1.45 -34.23 -1.53 -34.53 -1.53L-54.45 -1.53L-54.45 -24.32C-54.45 -24.69 -54.5 -25.04 -54.61 -25.35C-54.72 -25.67 -54.96 -25.83 -55.33 -25.83C-55.78 -25.83 -56.07 -25.68 -56.21 -25.38C-56.35 -25.07 -56.42 -24.72 -56.42 -24.32L-56.42 -0.86C-56.42 -0.66 -56.42 -0.5 -56.41 -0.38C-56.4 -0.27 -56.37 -0.18 -56.31 -0.13C-56.24 -0.07 -56.15 -0.04 -56.02 -0.02C-55.88 -0.01 -55.7 0 -55.47 0Z M-19.16 -24.65L-31.94 -1.58C-32.01 -1.42 -32.08 -1.28 -32.13 -1.16C-32.19 -1.04 -32.22 -0.91 -32.22 -0.79C-32.22 -0.48 -32.15 -0.23 -32.03 -0.05C-31.91 0.14 -31.71 0.23 -31.45 0.23C-31.23 0.23 -31.01 0.16 -30.79 0.01C-30.57 -0.14 -30.37 -0.37 -30.2 -0.7L-26.21 -7.93L-9.7 -7.93L-5.76 -0.79C-5.55 -0.4 -5.33 -0.14 -5.12 0.01C-4.92 0.16 -4.7 0.23 -4.49 0.23C-4.27 0.23 -4.08 0.15 -3.93 0C-3.78 -0.15 -3.7 -0.37 -3.7 -0.65C-3.7 -0.94 -3.78 -1.24 -3.95 -1.55L-16.75 -24.65C-17.01 -25.11 -17.23 -25.42 -17.39 -25.58C-17.55 -25.75 -17.74 -25.83 -17.96 -25.83C-18.24 -25.83 -18.44 -25.74 -18.58 -25.57C-18.72 -25.4 -18.92 -25.09 -19.16 -24.65ZM-10.38 -9.3L-25.54 -9.3L-17.96 -23.14Z M-0.03 -12.91C-0.03 -10.5 0.33 -8.45 1.07 -6.76C1.8 -5.07 2.89 -3.68 4.35 -2.61C5.8 -1.53 7.61 -0.75 9.78 -0.26C11.96 0.24 14.48 0.49 17.35 0.49C19.36 0.49 21.31 0.31 23.19 -0.06C25.06 -0.42 26.98 -1 28.95 -1.81C29.21 -1.92 29.39 -2.05 29.5 -2.2C29.61 -2.36 29.67 -2.51 29.67 -2.67C29.67 -2.85 29.59 -3.01 29.45 -3.15C29.3 -3.29 29.11 -3.36 28.88 -3.36C28.72 -3.36 28.58 -3.33 28.46 -3.27C26.68 -2.53 24.84 -1.97 22.94 -1.6C21.04 -1.23 19.18 -1.04 17.35 -1.04C14.6 -1.04 12.25 -1.27 10.31 -1.73C8.36 -2.18 6.76 -2.89 5.52 -3.86C4.27 -4.83 3.37 -6.06 2.79 -7.55C2.22 -9.04 1.94 -10.83 1.94 -12.91C1.94 -15 2.22 -16.79 2.79 -18.28C3.37 -19.77 4.27 -21 5.52 -21.97C6.76 -22.93 8.36 -23.65 10.31 -24.1C12.25 -24.56 14.6 -24.79 17.35 -24.79C19.18 -24.79 21.04 -24.6 22.94 -24.23C24.84 -23.86 26.68 -23.3 28.46 -22.56C28.69 -22.48 28.84 -22.44 28.9 -22.44C29.12 -22.44 29.29 -22.51 29.43 -22.65C29.57 -22.79 29.64 -22.95 29.64 -23.14C29.64 -23.29 29.59 -23.45 29.48 -23.61C29.37 -23.78 29.19 -23.91 28.95 -24.02C27 -24.82 25.08 -25.41 23.2 -25.77C21.31 -26.13 19.36 -26.32 17.35 -26.32C14.48 -26.32 11.96 -26.07 9.78 -25.57C7.61 -25.08 5.8 -24.29 4.35 -23.22C2.89 -22.15 1.8 -20.76 1.07 -19.07C0.33 -17.38 -0.03 -15.33 -0.03 -12.91Z M43.6 -14.4L57.09 -24.21C57.43 -24.45 57.6 -24.75 57.6 -25.09C57.6 -25.3 57.54 -25.48 57.41 -25.62C57.28 -25.76 57.09 -25.83 56.84 -25.83C56.71 -25.83 56.57 -25.8 56.41 -25.75C56.25 -25.69 56.08 -25.6 55.91 -25.48L37.34 -12.15L37.34 -24.34C37.34 -24.75 37.28 -25.09 37.15 -25.39C37.03 -25.68 36.78 -25.83 36.41 -25.83C35.96 -25.83 35.67 -25.69 35.54 -25.4C35.41 -25.11 35.35 -24.75 35.35 -24.3L35.35 -1.58C35.35 -1.16 35.4 -0.79 35.52 -0.48C35.64 -0.16 35.92 0 36.37 0C36.74 0 36.99 -0.16 37.13 -0.48C37.27 -0.79 37.34 -1.17 37.34 -1.62L37.34 -10.29L42.14 -13.45L56 -0.35C56.25 -0.12 56.51 0 56.77 0C57 0 57.19 -0.09 57.35 -0.26C57.5 -0.43 57.58 -0.63 57.58 -0.86C57.58 -1.2 57.43 -1.51 57.12 -1.79Z"></path></g><g id="SvgjsG15223" class="text" transform="translate(172.88542534722222, 158.59566696855757) scale(1)" light-content="false" fill="#ffffff"><path d="M16.64 -9.45C16.62 -10.86 16.34 -12.04 15.81 -12.98C15.28 -13.93 14.58 -14.7 13.72 -15.29C12.86 -15.88 11.88 -16.32 10.78 -16.61C9.68 -16.9 8.54 -17.1 7.36 -17.22L7.56 -17.22C7.78 -17.22 8.1 -17.23 8.55 -17.27C8.99 -17.31 9.49 -17.4 10.03 -17.55C10.57 -17.69 11.13 -17.92 11.71 -18.21C12.29 -18.51 12.81 -18.92 13.29 -19.45C13.76 -19.97 14.15 -20.62 14.46 -21.39C14.77 -22.16 14.93 -23.11 14.93 -24.23C14.93 -25.54 14.72 -26.65 14.3 -27.56C13.89 -28.47 13.31 -29.22 12.56 -29.82C11.82 -30.42 10.94 -30.88 9.93 -31.21C8.91 -31.54 7.8 -31.79 6.59 -31.95C5.39 -32.12 4.11 -32.21 2.75 -32.24C1.4 -32.27 0.03 -32.29 -1.36 -32.29L-14.64 -32.29C-14.96 -32.29 -15.23 -32.19 -15.45 -32.01C-15.66 -31.83 -15.77 -31.56 -15.77 -31.21L-15.77 -1.01C-15.77 -0.72 -15.68 -0.48 -15.52 -0.29C-15.36 -0.1 -15.11 0 -14.78 0L1.91 0C3.98 0 5.91 -0.13 7.71 -0.38C9.51 -0.63 11.07 -1.1 12.39 -1.78C13.71 -2.47 14.75 -3.42 15.51 -4.65C16.26 -5.88 16.64 -7.48 16.64 -9.45ZM12.46 -24.23C12.46 -22.91 12.23 -21.85 11.75 -21.04C11.28 -20.23 10.55 -19.59 9.56 -19.13C8.58 -18.66 7.33 -18.35 5.81 -18.19C4.29 -18.02 2.49 -17.94 0.41 -17.94L-13.3 -17.94L-13.3 -30.37L-0.29 -30.37C2.38 -30.37 4.54 -30.24 6.2 -29.97C7.86 -29.7 9.16 -29.3 10.09 -28.78C11.01 -28.26 11.64 -27.61 11.97 -26.85C12.3 -26.09 12.46 -25.21 12.46 -24.23ZM14.17 -9.45C14.17 -8.48 14.08 -7.54 13.9 -6.64C13.71 -5.73 13.25 -4.93 12.52 -4.23C11.79 -3.54 10.67 -2.98 9.17 -2.55C7.68 -2.13 5.62 -1.91 3.01 -1.91L-13.3 -1.91L-13.3 -16.35L0.41 -16.35C2.51 -16.35 4.41 -16.23 6.12 -16.01C7.82 -15.79 9.26 -15.42 10.45 -14.9C11.64 -14.37 12.55 -13.67 13.2 -12.78C13.85 -11.89 14.17 -10.78 14.17 -9.45Z"></path></g><g id="SvgjsG15224" class="text" transform="translate(15.77, 159.01962530189087) scale(1)" light-content="false" fill="#ffffff"><path d="M16.64 -9.45C16.62 -10.86 16.34 -12.04 15.81 -12.98C15.28 -13.93 14.58 -14.7 13.72 -15.29C12.86 -15.88 11.88 -16.32 10.78 -16.61C9.68 -16.9 8.54 -17.1 7.36 -17.22L7.56 -17.22C7.78 -17.22 8.1 -17.23 8.55 -17.27C8.99 -17.31 9.49 -17.4 10.03 -17.55C10.57 -17.69 11.13 -17.92 11.71 -18.21C12.29 -18.51 12.81 -18.92 13.29 -19.45C13.76 -19.97 14.15 -20.62 14.46 -21.39C14.77 -22.16 14.93 -23.11 14.93 -24.23C14.93 -25.54 14.72 -26.65 14.3 -27.56C13.89 -28.47 13.31 -29.22 12.56 -29.82C11.82 -30.42 10.94 -30.88 9.93 -31.21C8.91 -31.54 7.8 -31.79 6.59 -31.95C5.39 -32.12 4.11 -32.21 2.75 -32.24C1.4 -32.27 0.03 -32.29 -1.36 -32.29L-14.64 -32.29C-14.96 -32.29 -15.23 -32.19 -15.45 -32.01C-15.66 -31.83 -15.77 -31.56 -15.77 -31.21L-15.77 -1.01C-15.77 -0.72 -15.68 -0.48 -15.52 -0.29C-15.36 -0.1 -15.11 0 -14.78 0L1.91 0C3.98 0 5.91 -0.13 7.71 -0.38C9.51 -0.63 11.07 -1.1 12.39 -1.78C13.71 -2.47 14.75 -3.42 15.51 -4.65C16.26 -5.88 16.64 -7.48 16.64 -9.45ZM12.46 -24.23C12.46 -22.91 12.23 -21.85 11.75 -21.04C11.28 -20.23 10.55 -19.59 9.56 -19.13C8.58 -18.66 7.33 -18.35 5.81 -18.19C4.29 -18.02 2.49 -17.94 0.41 -17.94L-13.3 -17.94L-13.3 -30.37L-0.29 -30.37C2.38 -30.37 4.54 -30.24 6.2 -29.97C7.86 -29.7 9.16 -29.3 10.09 -28.78C11.01 -28.26 11.64 -27.61 11.97 -26.85C12.3 -26.09 12.46 -25.21 12.46 -24.23ZM14.17 -9.45C14.17 -8.48 14.08 -7.54 13.9 -6.64C13.71 -5.73 13.25 -4.93 12.52 -4.23C11.79 -3.54 10.67 -2.98 9.17 -2.55C7.68 -2.13 5.62 -1.91 3.01 -1.91L-13.3 -1.91L-13.3 -16.35L0.41 -16.35C2.51 -16.35 4.41 -16.23 6.12 -16.01C7.82 -15.79 9.26 -15.42 10.45 -14.9C11.64 -14.37 12.55 -13.67 13.2 -12.78C13.85 -11.89 14.17 -10.78 14.17 -9.45Z"></path></g></g></g></svg>